<svg width="24" height="24" viewBox="0 0 24 24" fill="none" xmlns="http://www.w3.org/2000/svg">
<path d="M13.2148 19.267C13.2363 17.0641 12.6779 15.2727 11.9675 15.2658C11.257 15.2589 10.6636 17.039 10.6421 19.2418C10.6206 21.4447 11.1791 23.2361 11.8895 23.243C12.5999 23.25 13.1933 21.4698 13.2148 19.267Z" fill="#404040"/>
<path d="M9.09456 18.7667C10.3037 16.9252 10.8025 15.1163 10.2086 14.7263C9.61474 14.3364 8.15309 15.513 6.94397 17.3545C5.7348 19.196 5.23603 21.0048 5.82989 21.3948C6.42379 21.7848 7.88539 20.6081 9.09456 18.7667Z" fill="#404040"/>
<path d="M5.89402 16.1246C7.90685 15.2293 9.30446 13.9773 9.0157 13.3282C8.72698 12.679 6.86122 12.8786 4.84838 13.7739C2.83557 14.6692 1.43794 15.9213 1.72668 16.5704C2.01542 17.2196 3.8812 17.02 5.89402 16.1246Z" fill="#404040"/>
<path d="M8.77411 11.5078C8.88221 10.8056 7.20475 9.96465 5.02747 9.62952C2.85013 9.29438 0.997459 9.59198 0.889382 10.2942C0.781305 10.9964 2.45875 11.8372 4.63607 12.1724C6.81336 12.5075 8.66606 12.2099 8.77411 11.5078Z" fill="#404040"/>
<path d="M9.55584 9.83496C10.0263 9.30264 9.0696 7.68845 7.41893 6.22958C5.76826 4.77073 4.04871 4.01965 3.57823 4.55199C3.10774 5.08435 4.06448 6.69854 5.71517 8.15741C7.36584 9.61627 9.08539 10.3673 9.55584 9.83496Z" fill="#404040"/>
<path d="M11.1127 8.85735C11.7963 8.66391 11.8642 6.78869 11.2644 4.66898C10.6646 2.54926 9.62414 0.987701 8.94053 1.18115C8.25691 1.37459 8.18899 3.24978 8.7888 5.36952C9.38861 7.4892 10.4291 9.05079 11.1127 8.85735Z" fill="#404040"/>
<path d="M15.34 5.43547C15.9816 3.32798 15.9506 1.45182 15.271 1.24493C14.5913 1.03804 13.5203 2.57878 12.8787 4.68626C12.2373 6.79373 12.2682 8.6699 12.9479 8.87678C13.6275 9.08366 14.6986 7.54296 15.34 5.43547Z" fill="#404040"/>
<path d="M18.3607 8.28312C20.0396 6.8568 21.0277 5.26162 20.5677 4.72019C20.1077 4.17875 18.3738 4.8961 16.6949 6.32237C15.016 7.74869 14.028 9.34387 14.4879 9.88531C14.9479 10.4268 16.6818 9.70944 18.3607 8.28312Z" fill="#404040"/>
<path d="M19.3595 12.3129C21.543 12.0208 23.2367 11.2131 23.1424 10.5089C23.0483 9.80477 21.2018 9.47074 19.0183 9.76282C16.8348 10.0549 15.1411 10.8626 15.2353 11.5668C15.3295 12.271 17.1759 12.605 19.3595 12.3129Z" fill="#404040"/>
<path d="M22.1762 16.7717C22.4777 16.1284 21.105 14.849 19.1102 13.9142C17.1155 12.9793 15.254 12.743 14.9525 13.3863C14.651 14.0297 16.0237 15.309 18.0185 16.2439C20.0132 17.1787 21.8747 17.415 22.1762 16.7717Z" fill="#404040"/>
<path d="M17.9803 21.5184C18.5817 21.1402 18.1187 19.3218 16.9461 17.4568C15.7735 15.5919 14.3353 14.3867 13.7339 14.7648C13.1325 15.1429 13.5955 16.9614 14.7681 18.8263C15.9407 20.6913 17.3788 21.8965 17.9803 21.5184Z" fill="#404040"/>
</svg>
