<svg width="24" height="24" viewBox="0 0 24 24" fill="none" xmlns="http://www.w3.org/2000/svg">
<path d="M12 5C11.7167 5 11.4793 4.904 11.288 4.712C11.0967 4.52 11.0007 4.28267 11 4V2C11 1.71667 11.096 1.47934 11.288 1.288C11.48 1.09667 11.7173 1.00067 12 1C12.2827 0.999337 12.5203 1.09534 12.713 1.288C12.9057 1.48067 13.0013 1.718 13 2V4C13 4.28334 12.904 4.521 12.712 4.713C12.52 4.905 12.2827 5.00067 12 5ZM16.95 7.05C16.7667 6.86667 16.675 6.63767 16.675 6.363C16.675 6.08834 16.7667 5.85067 16.95 5.65L18.35 4.225C18.55 4.025 18.7873 3.925 19.062 3.925C19.3367 3.925 19.5743 4.025 19.775 4.225C19.9583 4.40834 20.05 4.64167 20.05 4.925C20.05 5.20834 19.9583 5.44167 19.775 5.625L18.35 7.05C18.1667 7.23334 17.9333 7.325 17.65 7.325C17.3667 7.325 17.1333 7.23334 16.95 7.05ZM20 13C19.7167 13 19.479 12.904 19.287 12.712C19.095 12.52 18.9993 12.2827 19 12C19.0007 11.7173 19.0967 11.48 19.288 11.288C19.4793 11.096 19.7167 11 20 11H22C22.2833 11 22.521 11.096 22.713 11.288C22.905 11.48 23.0007 11.7173 23 12C22.9993 12.2827 22.9033 12.5203 22.712 12.713C22.5207 12.9057 22.2833 13.0013 22 13H20ZM12 23C11.7167 23 11.4793 22.904 11.288 22.712C11.0967 22.52 11.0007 22.2827 11 22V20C11 19.7167 11.096 19.4793 11.288 19.288C11.48 19.0967 11.7173 19.0007 12 19C12.2827 18.9993 12.5203 19.0953 12.713 19.288C12.9057 19.4807 13.0013 19.718 13 20V22C13 22.2833 12.904 22.521 12.712 22.713C12.52 22.905 12.2827 23.0007 12 23ZM5.65 7.05L4.225 5.65C4.025 5.45 3.925 5.20834 3.925 4.925C3.925 4.64167 4.025 4.40834 4.225 4.225C4.40834 4.04167 4.64167 3.95 4.925 3.95C5.20834 3.95 5.44167 4.04167 5.625 4.225L7.05 5.65C7.23334 5.83334 7.325 6.06667 7.325 6.35C7.325 6.63334 7.23334 6.86667 7.05 7.05C6.85 7.23334 6.61667 7.325 6.35 7.325C6.08334 7.325 5.85 7.23334 5.65 7.05ZM18.35 19.775L16.95 18.35C16.7667 18.15 16.675 17.9127 16.675 17.638C16.675 17.3633 16.7667 17.134 16.95 16.95C17.1333 16.766 17.3627 16.6743 17.638 16.675C17.9133 16.6757 18.1507 16.7673 18.35 16.95L19.775 18.35C19.975 18.5333 20.071 18.7667 20.063 19.05C20.055 19.3333 19.959 19.575 19.775 19.775C19.575 19.975 19.3333 20.075 19.05 20.075C18.7667 20.075 18.5333 19.975 18.35 19.775ZM2 13C1.71667 13 1.47934 12.904 1.288 12.712C1.09667 12.52 1.00067 12.2827 1 12C0.999337 11.7173 1.09534 11.48 1.288 11.288C1.48067 11.096 1.718 11 2 11H4C4.28334 11 4.521 11.096 4.713 11.288C4.905 11.48 5.00067 11.7173 5 12C4.99934 12.2827 4.90334 12.5203 4.712 12.713C4.52067 12.9057 4.28334 13.0013 4 13H2ZM4.225 19.775C4.04167 19.5917 3.95 19.3583 3.95 19.075C3.95 18.7917 4.04167 18.5583 4.225 18.375L5.65 16.95C5.83334 16.7667 6.06234 16.675 6.337 16.675C6.61167 16.675 6.84934 16.7667 7.05 16.95C7.25 17.15 7.35 17.3877 7.35 17.663C7.35 17.9383 7.25 18.1757 7.05 18.375L5.65 19.775C5.45 19.975 5.20834 20.075 4.925 20.075C4.64167 20.075 4.40834 19.975 4.225 19.775ZM12 18C10.3333 18 8.91667 17.4167 7.75 16.25C6.58334 15.0833 6 13.6667 6 12C6 10.3333 6.58334 8.91667 7.75 7.75C8.91667 6.58334 10.3333 6 12 6C13.6667 6 15.0833 6.58334 16.25 7.75C17.4167 8.91667 18 10.3333 18 12C18 13.6667 17.4167 15.0833 16.25 16.25C15.0833 17.4167 13.6667 18 12 18ZM12 16C13.1 16 14.0417 15.6083 14.825 14.825C15.6083 14.0417 16 13.1 16 12C16 10.9 15.6083 9.95834 14.825 9.175C14.0417 8.39167 13.1 8 12 8C10.9 8 9.95834 8.39167 9.175 9.175C8.39167 9.95834 8 10.9 8 12C8 13.1 8.39167 14.0417 9.175 14.825C9.95834 15.6083 10.9 16 12 16Z" fill="black"/>
</svg>
