<svg width="56" height="56" viewBox="0 0 56 56" fill="none" xmlns="http://www.w3.org/2000/svg">
<path d="M31.2947 29.1667L27.174 33.285C26.9562 33.5028 26.8551 33.7633 26.8707 34.0667C26.8847 34.3684 27.0013 34.629 27.2207 34.8483C27.4384 35.0661 27.7083 35.175 28.0303 35.175C28.3523 35.175 28.6168 35.0661 28.8237 34.8483L34.3537 29.3183C34.7301 28.9419 34.9183 28.5024 34.9183 28C34.9183 27.4976 34.7301 27.0581 34.3537 26.6817L28.7817 21.1073C28.5639 20.8896 28.3033 20.7807 28 20.7807C27.6967 20.7807 27.4361 20.8896 27.2183 21.1073C27.0006 21.3251 26.8917 21.5958 26.8917 21.9193C26.8917 22.2413 27.0006 22.5058 27.2183 22.7127L31.2947 26.8333H21C20.6687 26.8333 20.3918 26.9453 20.1693 27.1693C19.9453 27.3933 19.8333 27.671 19.8333 28.0023C19.8333 28.3337 19.9453 28.6106 20.1693 28.833C20.3918 29.0554 20.6687 29.1667 21 29.1667H31.2947ZM28.007 49C25.1043 49 22.3743 48.4493 19.817 47.348C17.2612 46.2451 15.0376 44.7487 13.146 42.8587C11.2544 40.9702 9.75722 38.7489 8.65433 36.1947C7.55144 33.6404 7 30.9112 7 28.007C7 25.1043 7.55067 22.3743 8.652 19.817C9.75489 17.2612 11.2513 15.0376 13.1413 13.146C15.0298 11.2544 17.2511 9.75722 19.8053 8.65433C22.3596 7.55144 25.0888 7 27.993 7C30.8957 7 33.6257 7.55067 36.183 8.652C38.7388 9.75489 40.9624 11.2513 42.854 13.1413C44.7456 15.0298 46.2428 17.2511 47.3457 19.8053C48.4486 22.3596 49 25.0888 49 27.993C49 30.8957 48.4493 33.6257 47.348 36.183C46.2451 38.7388 44.7487 40.9624 42.8587 42.854C40.9702 44.7456 38.7489 46.2428 36.1947 47.3457C33.6404 48.4486 30.9112 49 28.007 49ZM28 46.6667C33.2111 46.6667 37.625 44.8583 41.2417 41.2417C44.8583 37.625 46.6667 33.2111 46.6667 28C46.6667 22.7889 44.8583 18.375 41.2417 14.7583C37.625 11.1417 33.2111 9.33333 28 9.33333C22.7889 9.33333 18.375 11.1417 14.7583 14.7583C11.1417 18.375 9.33333 22.7889 9.33333 28C9.33333 33.2111 11.1417 37.625 14.7583 41.2417C18.375 44.8583 22.7889 46.6667 28 46.6667Z" fill="#404040"/>
</svg>
